<svg width="161" height="72" viewBox="0 0 161 72" fill="none" xmlns="http://www.w3.org/2000/svg">
<rect x="0.624512" width="160" height="72" fill="white"/>
<path d="M40.1626 33.455L34.44 45.0212H31.6241L25.9318 33.455V46.7773H18.2715V45.4754H21.2085V25.6129H27.5971L33.0472 37.2397L38.5275 25.6129H44.8859V45.4754H47.8229V46.7773H40.1626V33.455ZM73.1385 45.4754V46.7773H65.1753L63.2073 42.2053H54.3358L52.3677 46.7773H44.4046V45.4754H47.8865L56.4855 25.6129H61.0575L69.6262 45.4754H73.1385ZM58.7867 31.9108L56.1222 38.0572H61.4209L58.7867 31.9108ZM88.7655 45.4754V46.7773H70.0537V45.4754H77.0479V38.4206L69.7206 25.6129H74.8376L79.4096 33.4853L83.9816 25.6129H89.0986L81.7713 38.4206V45.4754H88.7655ZM114.416 45.4754V46.7773H106.453L104.485 42.2053H95.6134L93.6453 46.7773H85.6821V45.4754H89.1641L97.7631 25.6129H102.335L110.904 45.4754H114.416ZM100.064 31.9108L97.3998 38.0572H102.698L100.064 31.9108ZM132.708 45.4754V46.7773H110.998V45.4754H113.935V25.6129H122.171C123.604 25.6129 124.835 25.7845 125.865 26.1277C126.914 26.4708 127.702 26.9351 128.226 27.5205C129.175 28.6105 129.649 29.8418 129.649 31.2144C129.649 32.8696 129.115 34.1009 128.045 34.9083C127.681 35.1909 127.429 35.3726 127.288 35.4533C127.147 35.5139 126.894 35.6249 126.531 35.7864C127.843 36.069 128.882 36.6645 129.649 37.5728C130.437 38.461 130.83 39.5712 130.83 40.9034C130.83 42.9017 130.043 44.4257 128.469 45.4754H132.708ZM118.659 42.7806H121.898C123.251 42.7806 124.26 42.6192 124.926 42.2962C125.612 41.953 125.956 41.297 125.956 40.3281C125.956 39.339 125.592 38.6931 124.866 38.3903C124.159 38.0673 123.019 37.9059 121.444 37.9059H118.659V42.7806ZM118.659 34.1817H120.899C122.211 34.1817 123.18 34.0404 123.806 33.7578C124.452 33.4752 124.775 32.8696 124.775 31.9411C124.775 30.9924 124.482 30.3666 123.897 30.0638C123.311 29.761 122.322 29.6097 120.929 29.6097H118.659V34.1817ZM142.64 45.4754V46.7773H132.709V45.4754H135.313V25.6129H140.037V45.4754H142.64Z" fill="black" fill-opacity="0.4"/>
</svg>
