<svg width="160" height="72" viewBox="0 0 160 72" fill="none" xmlns="http://www.w3.org/2000/svg">
<rect width="160" height="72" fill="white"/>
<g opacity="0.4">
<path d="M61.1439 49.2043V22.4038H55.2095V49.2043H61.1439Z" fill="black"/>
<path d="M74.9294 49.7786C78.5666 49.7786 81.5529 48.2854 83.3141 45.7202C84.4244 44.0739 85.037 42.0447 85.037 39.7093C85.037 37.3738 84.4244 35.3446 83.3141 33.6983C81.5529 31.1331 78.5666 29.6399 74.9294 29.6399C71.2921 29.6399 68.3441 31.1331 66.5829 33.6983C65.4726 35.3446 64.86 37.3738 64.86 39.7093C64.86 42.0447 65.4726 44.0739 66.5829 45.7202C68.3441 48.2854 71.2921 49.7786 74.9294 49.7786ZM74.9294 44.6099C73.5893 44.6099 72.4407 43.9973 71.7133 42.9253C71.1773 42.1213 70.8327 41.011 70.8327 39.7093C70.8327 38.4075 71.1773 37.2972 71.7133 36.4932C72.4407 35.4212 73.5893 34.8086 74.9294 34.8086C76.3077 34.8086 77.418 35.4212 78.1454 36.4932C78.7197 37.2972 79.026 38.4075 79.026 39.7093C79.026 41.011 78.7197 42.1213 78.1454 42.9253C77.418 43.9973 76.3077 44.6099 74.9294 44.6099Z" fill="black"/>
<path d="M96.9407 49.7786C102.186 49.7786 105.823 46.9837 106.053 41.8916H100.157C99.8888 43.6528 98.7785 44.6099 96.979 44.6099C95.7921 44.6099 94.835 44.1122 94.1841 43.1933C93.6098 42.351 93.3035 41.2024 93.3035 39.7858C93.3035 38.2927 93.6481 37.1824 94.2224 36.3018C94.9116 35.3446 95.907 34.8086 97.1705 34.8086C99.0082 34.8086 100.195 35.7658 100.501 37.5652H106.359C106.168 32.5114 102.454 29.6399 97.1705 29.6399C93.6481 29.6399 90.8149 30.9417 89.1303 33.3537C87.9817 35 87.3309 37.1824 87.3309 39.7858C87.3309 42.351 87.9434 44.4568 89.092 46.1031C90.7383 48.5151 93.495 49.7786 96.9407 49.7786Z" fill="black"/>
<path d="M116.035 49.7786C119.059 49.7786 121.088 47.9025 122.16 44.1888H122.926L121.471 49.2043H127.444V30.2142H121.471V40.1304C121.471 42.7722 120.246 44.3419 118.217 44.3419C116.456 44.3419 115.575 43.2316 115.575 41.0876V30.2142H109.564V42.351C109.564 47.2134 111.747 49.7786 116.035 49.7786Z" fill="black"/>
<path d="M139.382 49.7786C142.33 49.7786 144.513 48.9746 145.891 47.5963C146.887 46.6008 147.423 45.3374 147.423 43.691C147.423 40.4367 145.7 38.6755 141.68 37.7567L139.191 37.2206C137.698 36.8761 137.123 36.3783 137.123 35.536C137.123 35.1149 137.277 34.7703 137.506 34.5023C137.928 34.1194 138.54 33.928 139.459 33.928C141.144 33.928 142.139 34.732 142.139 36.2252V36.4166H147.652V36.2252C147.652 32.1286 144.742 29.6782 139.65 29.6782C136.702 29.6782 134.482 30.444 133.065 31.8223C132.07 32.8177 131.572 34.1194 131.572 35.6509C131.572 38.7904 133.295 40.6664 136.626 41.3939L139.842 42.1213C141.258 42.3893 141.794 42.9636 141.794 43.8442C141.794 44.3036 141.641 44.6482 141.373 44.9162C140.99 45.2991 140.34 45.4905 139.459 45.4905C137.774 45.4905 136.817 44.7248 136.817 43.2699V43.0785H131.304V43.2699C131.304 47.4048 134.252 49.7786 139.382 49.7786Z" fill="black"/>
<path d="M25.6622 22.2219L25.6622 35.5389H10.3477L25.6622 22.2219Z" fill="black"/>
<path d="M40.9757 22.2214L40.9757 35.5384H25.6611L40.9757 22.2214Z" fill="black"/>
<path d="M25.6612 35.5386L25.6612 48.8556H10.3467L25.6612 35.5386Z" fill="black"/>
<path d="M40.9757 35.5386L40.9757 48.8556H25.6611L40.9757 35.5386Z" fill="black"/>
</g>
</svg>
