<svg width="160" height="72" viewBox="0 0 160 72" fill="none" xmlns="http://www.w3.org/2000/svg">
<rect width="160" height="72" fill="white"/>
<path d="M51.7856 26.3577C53.4242 26.3577 54.8467 26.6278 56.0532 27.168C57.2776 27.7082 58.214 28.4824 58.8622 29.4908C59.5104 30.4992 59.8345 31.6966 59.8345 33.0831C59.8345 34.4516 59.5104 35.649 58.8622 36.6754C58.214 37.6838 57.2776 38.458 56.0532 38.9982C54.8467 39.5384 53.4242 39.8085 51.7856 39.8085H47.5181V45.2645H44.0068V26.3577H51.7856ZM51.6236 36.8374C53.1541 36.8374 54.3156 36.5133 55.1078 35.8651C55.9001 35.2169 56.2963 34.2895 56.2963 33.0831C56.2963 31.8767 55.9001 30.9493 55.1078 30.3011C54.3156 29.6529 53.1541 29.3287 51.6236 29.3287H47.5181V36.8374H51.6236Z" fill="black" fill-opacity="0.4"/>
<path d="M68.7712 45.4536C67.3127 45.4536 65.9982 45.1384 64.8278 44.5082C63.6573 43.878 62.739 43.0047 62.0728 41.8883C61.4245 40.7539 61.1004 39.4754 61.1004 38.0529C61.1004 36.6304 61.4245 35.3609 62.0728 34.2445C62.739 33.1281 63.6573 32.2548 64.8278 31.6246C65.9982 30.9943 67.3127 30.6792 68.7712 30.6792C70.2477 30.6792 71.5712 30.9943 72.7416 31.6246C73.912 32.2548 74.8214 33.1281 75.4696 34.2445C76.1358 35.3609 76.469 36.6304 76.469 38.0529C76.469 39.4754 76.1358 40.7539 75.4696 41.8883C74.8214 43.0047 73.912 43.878 72.7416 44.5082C71.5712 45.1384 70.2477 45.4536 68.7712 45.4536ZM68.7712 42.5635C70.0136 42.5635 71.04 42.1494 71.8503 41.3211C72.6606 40.4928 73.0657 39.4034 73.0657 38.0529C73.0657 36.7024 72.6606 35.613 71.8503 34.7847C71.04 33.9564 70.0136 33.5423 68.7712 33.5423C67.5287 33.5423 66.5024 33.9564 65.6921 34.7847C64.8998 35.613 64.5036 36.7024 64.5036 38.0529C64.5036 39.4034 64.8998 40.4928 65.6921 41.3211C66.5024 42.1494 67.5287 42.5635 68.7712 42.5635Z" fill="black" fill-opacity="0.4"/>
<path d="M87.0171 30.6792C88.4216 30.6792 89.6731 30.9853 90.7715 31.5976C91.8879 32.2098 92.7612 33.0741 93.3914 34.1905C94.0216 35.3069 94.3368 36.5944 94.3368 38.0529C94.3368 39.5114 94.0216 40.8079 93.3914 41.9423C92.7612 43.0587 91.8879 43.923 90.7715 44.5352C89.6731 45.1474 88.4216 45.4536 87.0171 45.4536C85.0724 45.4536 83.5329 44.8053 82.3984 43.5089V50.5044H79.0222V30.8413H82.2364V32.732C82.7946 32.0477 83.4788 31.5345 84.2891 31.1924C85.1174 30.8503 86.0268 30.6792 87.0171 30.6792ZM86.639 42.5635C87.8814 42.5635 88.8988 42.1494 89.6911 41.3211C90.5014 40.4928 90.9065 39.4034 90.9065 38.0529C90.9065 36.7024 90.5014 35.613 89.6911 34.7847C88.8988 33.9564 87.8814 33.5423 86.639 33.5423C85.8287 33.5423 85.0994 33.7313 84.4512 34.1095C83.803 34.4696 83.2898 34.9918 82.9116 35.676C82.5335 36.3603 82.3444 37.1526 82.3444 38.0529C82.3444 38.9532 82.5335 39.7455 82.9116 40.4297C83.2898 41.114 83.803 41.6452 84.4512 42.0233C85.0994 42.3834 85.8287 42.5635 86.639 42.5635Z" fill="black" fill-opacity="0.4"/>
<path d="M104.858 30.6792C106.263 30.6792 107.514 30.9853 108.613 31.5976C109.729 32.2098 110.602 33.0741 111.233 34.1905C111.863 35.3069 112.178 36.5944 112.178 38.0529C112.178 39.5114 111.863 40.8079 111.233 41.9423C110.602 43.0587 109.729 43.923 108.613 44.5352C107.514 45.1474 106.263 45.4536 104.858 45.4536C102.914 45.4536 101.374 44.8053 100.24 43.5089V50.5044H96.8634V30.8413H100.078V32.732C100.636 32.0477 101.32 31.5345 102.13 31.1924C102.959 30.8503 103.868 30.6792 104.858 30.6792ZM104.48 42.5635C105.723 42.5635 106.74 42.1494 107.532 41.3211C108.343 40.4928 108.748 39.4034 108.748 38.0529C108.748 36.7024 108.343 35.613 107.532 34.7847C106.74 33.9564 105.723 33.5423 104.48 33.5423C103.67 33.5423 102.941 33.7313 102.292 34.1095C101.644 34.4696 101.131 34.9918 100.753 35.676C100.375 36.3603 100.186 37.1526 100.186 38.0529C100.186 38.9532 100.375 39.7455 100.753 40.4297C101.131 41.114 101.644 41.6452 102.292 42.0233C102.941 42.3834 103.67 42.5635 104.48 42.5635Z" fill="black" fill-opacity="0.4"/>
<path d="M121.565 42.5905C123.132 42.5905 124.437 42.0683 125.482 41.024L127.264 43.1037C126.634 43.878 125.824 44.4632 124.833 44.8593C123.843 45.2555 122.727 45.4536 121.484 45.4536C119.9 45.4536 118.504 45.1384 117.298 44.5082C116.091 43.878 115.155 43.0047 114.489 41.8883C113.84 40.7539 113.516 39.4754 113.516 38.0529C113.516 36.6484 113.831 35.3879 114.462 34.2715C115.11 33.1371 115.992 32.2548 117.109 31.6246C118.243 30.9943 119.521 30.6792 120.944 30.6792C122.294 30.6792 123.519 30.9763 124.617 31.5705C125.734 32.1468 126.616 32.9841 127.264 34.0825C127.912 35.1628 128.237 36.4323 128.237 37.8908L117.19 40.0516C117.532 40.8799 118.081 41.5101 118.837 41.9423C119.593 42.3744 120.503 42.5905 121.565 42.5905ZM120.944 33.3802C119.701 33.3802 118.693 33.7853 117.919 34.5956C117.163 35.4059 116.784 36.4953 116.784 37.8638V37.8908L124.941 36.3243C124.707 35.4419 124.23 34.7307 123.51 34.1905C122.808 33.6503 121.952 33.3802 120.944 33.3802Z" fill="black" fill-opacity="0.4"/>
<path d="M134.019 32.948C134.992 31.4355 136.702 30.6792 139.151 30.6792V33.8934C138.863 33.8394 138.602 33.8124 138.368 33.8124C137.053 33.8124 136.027 34.1995 135.289 34.9738C134.55 35.73 134.181 36.8284 134.181 38.269V45.2645H130.805V30.8413H134.019V32.948Z" fill="black" fill-opacity="0.4"/>
<path d="M145.849 45.4536C144.679 45.4536 143.535 45.3005 142.419 44.9944C141.303 44.6883 140.411 44.3011 139.745 43.833L141.041 41.267C141.69 41.6992 142.464 42.0503 143.364 42.3204C144.283 42.5725 145.183 42.6986 146.065 42.6986C148.082 42.6986 149.09 42.1674 149.09 41.105C149.09 40.6008 148.829 40.2497 148.307 40.0516C147.803 39.8535 146.984 39.6645 145.849 39.4844C144.661 39.3043 143.688 39.0973 142.932 38.8632C142.194 38.6291 141.546 38.2239 140.987 37.6477C140.447 37.0535 140.177 36.2342 140.177 35.1899C140.177 33.8214 140.744 32.732 141.879 31.9217C143.031 31.0934 144.58 30.6792 146.524 30.6792C147.515 30.6792 148.505 30.7963 149.496 31.0304C150.486 31.2464 151.296 31.5435 151.926 31.9217L150.63 34.4876C149.405 33.7673 148.028 33.4072 146.497 33.4072C145.507 33.4072 144.751 33.5603 144.229 33.8664C143.724 34.1545 143.472 34.5416 143.472 35.0278C143.472 35.568 143.742 35.9551 144.283 36.1892C144.841 36.4053 145.696 36.6124 146.849 36.8104C148.001 36.9905 148.946 37.1976 149.685 37.4317C150.423 37.6657 151.053 38.0619 151.575 38.6201C152.115 39.1783 152.386 39.9706 152.386 40.997C152.386 42.3474 151.8 43.4278 150.63 44.2381C149.46 45.0484 147.866 45.4536 145.849 45.4536Z" fill="black" fill-opacity="0.4"/>
<path d="M22.0204 21.4957C18.1999 21.4958 14.5359 23.0134 11.8344 25.7149C9.13292 28.4164 7.61523 32.0805 7.61523 35.901C7.61523 39.7214 9.13292 43.3855 11.8344 46.087C14.5359 48.7885 18.1999 50.3062 22.0204 50.3062L22.0204 35.901L22.0204 21.4957Z" fill="black" fill-opacity="0.4"/>
<path d="M33.5445 26.5376C31.0612 26.5376 28.6796 27.5241 26.9236 29.2801C25.1676 31.0361 24.1812 33.4177 24.1812 35.901C24.1812 38.3843 25.1676 40.766 26.9236 42.5219C28.6796 44.2779 31.0612 45.2644 33.5445 45.2644L33.5445 35.901L33.5445 26.5376Z" fill="black" fill-opacity="0.4"/>
</svg>
