<svg width="160" height="72" viewBox="0 0 160 72" fill="none" xmlns="http://www.w3.org/2000/svg">
<rect width="160" height="72" fill="white"/>
<g opacity="0.4">
<path d="M30.3264 50.0985C32.3878 50.0985 34.167 49.6813 35.6639 48.8469C37.1854 48.0126 38.3633 46.8347 39.1977 45.3132C40.0321 43.7671 40.4492 41.9512 40.4492 39.8652V22.7853H34.7437V32.8345H34.6332C34.0688 32.0492 33.3081 31.4357 32.351 30.994C31.4185 30.5523 30.3878 30.3314 29.2589 30.3314C27.492 30.3314 25.9215 30.7363 24.5472 31.5461C23.1975 32.356 22.13 33.4848 21.3447 34.9327C20.584 36.356 20.2036 38.0125 20.2036 39.9021C20.2036 41.8653 20.6085 43.6199 21.4184 45.1659C22.2282 46.712 23.3816 47.9267 24.8785 48.8101C26.4 49.669 28.216 50.0985 30.3264 50.0985ZM30.3264 45.1659C29.0258 45.1659 27.9828 44.6997 27.1976 43.7671C26.4123 42.8101 26.0196 41.6321 26.0196 40.2334C26.0196 38.8591 26.4123 37.7057 27.1976 36.7732C27.9828 35.8161 29.0258 35.3376 30.3264 35.3376C31.6516 35.3376 32.6946 35.8161 33.4553 36.7732C34.2406 37.7057 34.6332 38.8591 34.6332 40.2334C34.6332 41.6321 34.2406 42.8101 33.4553 43.7671C32.6946 44.6997 31.6516 45.1659 30.3264 45.1659Z" fill="black"/>
<path d="M53.9842 50.0985C52.0455 50.0985 50.3645 49.7304 48.9412 48.9942C47.5424 48.2334 46.4626 47.215 45.7019 45.9389C44.9411 44.6383 44.5608 43.2027 44.5608 41.6321V30.7731H50.2664V41.4849C50.2664 42.4665 50.6099 43.3254 51.297 44.0616C52.0087 44.7733 52.8922 45.1291 53.9474 45.1291C54.9781 45.1291 55.837 44.7733 56.5241 44.0616C57.2358 43.3254 57.5916 42.4665 57.5916 41.4849V30.7731H63.2972V41.6321C63.2972 43.2027 62.9291 44.6383 62.1929 45.9389C61.4567 47.215 60.3892 48.2334 58.9904 48.9942C57.5916 49.7304 55.9229 50.0985 53.9842 50.0985Z" fill="black"/>
<path d="M67.5672 49.6568V22.7853H73.2727V49.6568H67.5672Z" fill="black"/>
<path d="M85.0716 50.0985C83.3783 50.0985 81.8936 49.669 80.6175 48.8101C79.366 47.9512 78.3844 46.7978 77.6727 45.35C76.9611 43.8776 76.6052 42.2211 76.6052 40.3806C76.6052 38.4665 77.0101 36.7609 77.82 35.264C78.6543 33.7425 79.8323 32.54 81.3537 31.6566C82.8998 30.7731 84.728 30.3314 86.8385 30.3314C88.9489 30.3314 90.7404 30.7731 92.2128 31.6566C93.7097 32.54 94.8508 33.7302 95.6361 35.2272C96.4459 36.7241 96.8509 38.4051 96.8509 40.2702V49.6568H91.2557V46.6383H91.1085C90.5686 47.6199 89.8201 48.442 88.863 49.1046C87.906 49.7672 86.6422 50.0985 85.0716 50.0985ZM86.7648 45.1659C88.0655 45.1659 89.0962 44.6997 89.8569 43.7671C90.6422 42.8101 91.0348 41.6199 91.0348 40.1965C91.0348 38.8468 90.6422 37.7057 89.8569 36.7732C89.0962 35.8161 88.0655 35.3376 86.7648 35.3376C85.4151 35.3376 84.3476 35.8161 83.5624 36.7732C82.8016 37.7057 82.4212 38.8468 82.4212 40.1965C82.4212 41.5953 82.8016 42.7733 83.5624 43.7303C84.3476 44.6874 85.4151 45.1659 86.7648 45.1659Z" fill="black"/>
<path d="M101.07 49.6568V22.7853H106.776V49.6568H101.07Z" fill="black"/>
<path d="M110.992 49.6568V30.7731H116.734V49.6568H110.992ZM113.863 28.6381C112.955 28.6381 112.17 28.3068 111.507 27.6442C110.844 26.9817 110.513 26.1964 110.513 25.2884C110.513 24.3559 110.844 23.5583 111.507 22.8957C112.17 22.2331 112.955 21.9019 113.863 21.9019C114.795 21.9019 115.581 22.2331 116.219 22.8957C116.881 23.5583 117.213 24.3559 117.213 25.2884C117.213 26.1964 116.881 26.9817 116.219 27.6442C115.581 28.3068 114.795 28.6381 113.863 28.6381Z" fill="black"/>
<path d="M119.514 49.6568L125.257 41.4113C123.76 40.6505 122.619 39.6444 121.833 38.3928C121.048 37.1168 120.656 35.6812 120.656 34.086V30.7731H126.361V33.7916C126.361 34.675 126.607 35.448 127.097 36.1106C127.613 36.7486 128.251 37.1781 129.011 37.399L133.355 30.7731H139.797L134.349 38.6873C136.018 39.3744 137.294 40.3929 138.177 41.7426C139.085 43.0923 139.539 44.6138 139.539 46.307V49.6568H133.797V46.4911C133.797 45.5095 133.466 44.6751 132.803 43.988C132.14 43.2763 131.355 42.8714 130.447 42.7733L125.919 49.6568H119.514Z" fill="black"/>
</g>
</svg>
