<svg width="160" height="72" viewBox="0 0 160 72" fill="none" xmlns="http://www.w3.org/2000/svg">
<rect width="160" height="72" fill="white"/>
<g opacity="0.4">
<path d="M135.143 40.1467C135.143 43.2034 132.666 45.6813 129.609 45.6813C126.552 45.6813 124.074 43.2034 124.074 40.1467C124.074 37.09 126.552 34.6121 129.609 34.6121C132.666 34.6121 135.143 37.09 135.143 40.1467Z" fill="black"/>
<path d="M68.7275 40.1467C68.7275 43.2034 66.2495 45.6813 63.1928 45.6813C60.1361 45.6813 57.6582 43.2034 57.6582 40.1467C57.6582 37.09 60.1361 34.6121 63.1928 34.6121C66.2495 34.6121 68.7275 37.09 68.7275 40.1467Z" fill="black"/>
<path d="M32.1458 32.4149V33.9653C30.8538 32.8348 29.1742 32.1242 27.2362 32.1242C23.0049 32.1242 19.3228 35.5803 19.3228 40.0699C19.3228 44.5596 23.0049 48.048 27.2362 48.048C29.1742 48.048 30.8538 47.3374 32.1458 46.1746V47.7573H35.5695V32.4149H32.1458ZM27.4623 44.818C24.9106 44.818 22.8111 42.6862 22.8111 40.0699C22.8111 37.486 24.9106 35.3542 27.4623 35.3542C30.0786 35.3542 32.1458 37.486 32.1458 40.0699C32.1458 42.6862 30.0786 44.818 27.4623 44.818Z" fill="black"/>
<path d="M49.8627 23.8555V33.9653C48.5707 32.8348 46.8911 32.1242 44.9531 32.1242C40.7218 32.1242 37.0397 35.5803 37.0397 40.0699C37.0397 44.5596 40.7218 48.048 44.9531 48.048C46.8911 48.048 48.5707 47.3374 49.8627 46.1746V47.7573H53.2864V23.8555H49.8627ZM45.1792 44.818C42.6275 44.818 40.528 42.6862 40.528 40.0699C40.528 37.486 42.6275 35.3542 45.1792 35.3542C47.7955 35.3542 49.8627 37.486 49.8627 40.0699C49.8627 42.6862 47.7955 44.818 45.1792 44.818Z" fill="black"/>
<path d="M62.8638 48.1449C67.4181 48.1449 71.0034 44.5273 71.0034 40.1345C71.0034 35.7095 67.4181 32.1242 62.8638 32.1242C58.3419 32.1242 54.7566 35.7095 54.7566 40.1345C54.7566 44.5273 58.3419 48.1449 62.8638 48.1449ZM62.8638 44.8826C60.2152 44.8826 58.245 42.6862 58.245 40.1345C58.245 37.5829 60.2152 35.4188 62.8638 35.4188C65.5447 35.4188 67.515 37.5829 67.515 40.1345C67.515 42.6862 65.5447 44.8826 62.8638 44.8826Z" fill="black"/>
<path d="M80.8318 32.1242C78.8938 32.1242 77.2142 32.8348 75.9223 33.9653V23.8555H72.4985V47.7573H75.9223V46.1746C77.2142 47.3374 78.8938 48.048 80.8318 48.048C85.0631 48.048 88.7453 44.5596 88.7453 40.0699C88.7453 35.5803 85.0631 32.1242 80.8318 32.1242ZM80.6057 44.818C77.9894 44.818 75.9223 42.6862 75.9223 40.0699C75.9223 37.486 77.9894 35.3542 80.6057 35.3542C83.1574 35.3542 85.2569 37.486 85.2569 40.0699C85.2569 42.6862 83.1574 44.818 80.6057 44.818Z" fill="black"/>
<path d="M101.973 32.4149V33.9653C100.681 32.8348 99.0009 32.1242 97.0629 32.1242C92.8317 32.1242 89.1495 35.5803 89.1495 40.0699C89.1495 44.5596 92.8317 48.048 97.0629 48.048C99.0009 48.048 100.681 47.3374 101.973 46.1746V47.7573H105.396V32.4149H101.973ZM97.289 44.818C94.7374 44.818 92.6379 42.6862 92.6379 40.0699C92.6379 37.486 94.7374 35.3542 97.289 35.3542C99.9053 35.3542 101.973 37.486 101.973 40.0699C101.973 42.6862 99.9053 44.818 97.289 44.818Z" fill="black"/>
<path d="M114.974 48.1449C117.881 48.1449 120.432 46.6914 121.886 44.4304L118.979 42.6862C118.139 44.0428 116.653 44.8826 114.974 44.8826C112.357 44.8826 110.355 42.7185 110.355 40.1345C110.355 37.5506 112.357 35.4188 114.974 35.4188C116.621 35.4188 118.01 36.1617 118.882 37.4537L121.789 35.7418C120.335 33.5454 117.848 32.1242 114.974 32.1242C110.484 32.1242 106.866 35.6772 106.866 40.1345C106.866 44.5596 110.484 48.1449 114.974 48.1449Z" fill="black"/>
<path d="M129.757 48.1449C134.311 48.1449 137.897 44.5273 137.897 40.1345C137.897 35.7095 134.311 32.1242 129.757 32.1242C125.235 32.1242 121.65 35.7095 121.65 40.1345C121.65 44.5273 125.235 48.1449 129.757 48.1449ZM129.757 44.8826C127.109 44.8826 125.138 42.6862 125.138 40.1345C125.138 37.5829 127.109 35.4188 129.757 35.4188C132.438 35.4188 134.408 37.5829 134.408 40.1345C134.408 42.6862 132.438 44.8826 129.757 44.8826Z" fill="black"/>
<path d="M56.195 27.5799C56.004 27.249 56.1174 26.8258 56.4483 26.6348C56.7792 26.4438 57.2023 26.5571 57.3933 26.888L59.1229 29.8837C59.3139 30.2146 59.2006 30.6377 58.8697 30.8288C58.5388 31.0198 58.1156 30.9065 57.9246 30.5756L56.195 27.5799Z" fill="black"/>
<path d="M66.6521 26.888C66.8432 26.5571 67.2663 26.4437 67.5972 26.6347C67.9281 26.8258 68.0415 27.2489 67.8504 27.5798L66.1208 30.5755C65.9298 30.9064 65.5067 31.0198 65.1758 30.8287C64.8449 30.6377 64.7315 30.2146 64.9226 29.8837L66.6521 26.888Z" fill="black"/>
<path d="M61.356 26.3813C61.356 25.9992 61.6657 25.6895 62.0478 25.6895C62.4299 25.6895 62.7396 25.9992 62.7396 26.3813V29.8404C62.7396 30.2225 62.4299 30.5323 62.0478 30.5323C61.6657 30.5323 61.356 30.2225 61.356 29.8404V26.3813Z" fill="black"/>
<path d="M140.074 36.6169C140.387 36.6515 140.671 36.4258 140.677 36.1113C140.7 34.8614 140.346 33.6285 139.655 32.5764C138.963 31.5244 137.972 30.7105 136.815 30.2358C136.524 30.1164 136.204 30.2877 136.112 30.5884C136.02 30.8891 136.19 31.2047 136.479 31.3301C137.383 31.7229 138.157 32.3717 138.703 33.202C139.248 34.0323 139.537 35.0006 139.539 35.986C139.539 36.3005 139.761 36.5824 140.074 36.6169Z" fill="black"/>
</g>
</svg>
