<svg width="226" height="52" viewBox="0 0 226 52" fill="none" xmlns="http://www.w3.org/2000/svg">
<path d="M77.6557 12.8275V7.45994H76.4786C70.3578 7.45994 67.1561 10.7087 67.1561 16.9708V19.1366H63.5307V23.9862H67.1561V40.8892H72.9003V23.9862H77.3732V19.1366H72.9003V16.9708C72.9003 13.8162 74.3599 12.8275 76.9965 12.8275H77.6557ZM80.3946 8.21328V14.5695H86.9863V8.21328H80.3946ZM86.5626 40.8892V19.1366H80.7713V40.8892H86.5626ZM100.938 41.5954C104.47 41.5954 106.824 40.0887 108.189 37.8287H108.283V40.8892H114.028V19.1366H108.283V22.197H108.189C106.824 19.937 104.47 18.4304 100.938 18.4304C95.2413 18.4304 90.4859 22.5737 90.4859 30.0129C90.4859 37.4521 95.2413 41.5954 100.938 41.5954ZM102.398 36.1337C98.9139 36.1337 96.5126 33.6854 96.5126 30.0129C96.5126 26.3404 98.9139 23.8921 102.398 23.8921C105.882 23.8921 108.283 26.3404 108.283 30.0129C108.283 33.6854 105.882 36.1337 102.398 36.1337ZM131.925 18.4304C128.724 18.4304 126.275 19.937 124.816 22.4325H124.721V19.1366H119.024V40.8892H124.769V30.2483C124.769 25.54 126.887 23.7979 129.854 23.7979C132.679 23.7979 134.326 25.3046 134.326 28.8358V40.8892H140.118V27.4704C140.118 21.067 136.634 18.4304 131.925 18.4304ZM155.645 41.5954C158.611 41.5954 161.012 40.8421 163.272 39.4296L160.777 34.6742C159.365 35.5687 157.717 36.1808 155.739 36.1808C152.161 36.1808 149.571 33.6854 149.571 30.0129C149.571 26.3404 152.161 23.845 155.739 23.845C157.717 23.845 159.365 24.4571 160.777 25.3516L163.272 20.5962C161.012 19.1837 158.611 18.4304 155.645 18.4304C148.63 18.4304 143.639 23.0446 143.639 30.0129C143.639 36.9812 148.63 41.5954 155.645 41.5954ZM175.216 18.4304C168.389 18.4304 163.916 23.1387 163.916 30.06C163.916 36.9812 168.53 41.5954 175.64 41.5954C180.207 41.5954 183.126 39.4767 185.056 37.6875L182.137 33.4971C180.913 34.7212 178.747 36.4633 175.64 36.4633C172.297 36.4633 169.848 34.5329 169.519 31.19H185.762V30.06C185.762 22.6208 181.807 18.4304 175.216 18.4304ZM174.933 23.0916C177.758 23.0916 179.736 24.6925 179.924 27.4704H169.66C170.131 24.4571 172.155 23.0916 174.933 23.0916ZM200.155 18.4304C193.233 18.4304 188.101 23.1858 188.101 30.0129C188.101 36.84 193.233 41.5954 200.155 41.5954C207.076 41.5954 212.208 36.84 212.208 30.0129C212.208 23.1858 207.076 18.4304 200.155 18.4304ZM200.155 23.8921C203.686 23.8921 206.228 26.2933 206.228 30.0129C206.228 33.7325 203.686 36.1337 200.155 36.1337C196.623 36.1337 194.034 33.7325 194.034 30.0129C194.034 26.2933 196.623 23.8921 200.155 23.8921Z" fill="white"/>
<path d="M215.715 34.3446V40.8892H222.212V34.3446H215.715Z" fill="#00B3FF"/>
<mask id="mask0_222_5995" style="mask-type:alpha" maskUnits="userSpaceOnUse" x="-1" y="4" width="45" height="44">
<rect x="-0.000488281" y="4.02783" width="43.9445" height="43.9445" fill="#C4C4C4"/>
</mask>
<g mask="url(#mask0_222_5995)">
<path d="M43.9444 4.02766C38.117 4.02766 32.5283 6.34258 28.4077 10.4632C24.2871 14.5838 21.9722 20.1725 21.9722 25.9999C21.9722 31.8273 24.2871 37.416 28.4077 41.5366C32.5283 45.6572 38.117 47.9722 43.9444 47.9722L43.9444 25.9999L43.9444 4.02766Z" fill="white"/>
<mask id="path-4-inside-1_222_5995" fill="white">
<path d="M-8.96589e-05 47.9723C5.82731 47.9723 11.416 45.6574 15.5366 41.5368C19.6572 37.4162 21.9722 31.8275 21.9722 26.0001C21.9722 20.1727 19.6572 14.584 15.5366 10.4634C11.416 6.34276 5.82732 4.02783 -8.39233e-05 4.02783L-8.86985e-05 26.0001L-8.96589e-05 47.9723Z"/>
</mask>
<path d="M-8.96589e-05 47.9723C5.82731 47.9723 11.416 45.6574 15.5366 41.5368C19.6572 37.4162 21.9722 31.8275 21.9722 26.0001C21.9722 20.1727 19.6572 14.584 15.5366 10.4634C11.416 6.34276 5.82732 4.02783 -8.39233e-05 4.02783L-8.86985e-05 26.0001L-8.96589e-05 47.9723Z" fill="white" stroke="white" stroke-width="2.74653" mask="url(#path-4-inside-1_222_5995)"/>
</g>
</svg>
