<svg width="56" height="56" viewBox="0 0 56 56" fill="none" xmlns="http://www.w3.org/2000/svg">
<mask id="mask0_121_7050" style="mask-type:alpha" maskUnits="userSpaceOnUse" x="0" y="0" width="56" height="56">
<rect y="56" width="56" height="56" transform="rotate(-90 0 56)" fill="#F0F4FD"/>
</mask>
<g mask="url(#mask0_121_7050)">
<path d="M33.9162 0.000450522C29.6461 0.000450471 25.4178 0.841507 21.4728 2.47559C17.5277 4.10968 13.9432 6.5048 10.9238 9.5242C7.90438 12.5436 5.50926 16.1282 3.87517 20.0732C2.24108 24.0182 1.40002 28.2465 1.40002 32.5166L33.9162 32.5166L33.9162 0.000450522Z" fill="#00B3FF"/>
<path d="M56.4968 23.4843C52.2268 23.4843 47.9985 24.3254 44.0535 25.9595C40.1084 27.5936 36.5239 29.9887 33.5045 33.0081C30.4851 36.0275 28.0899 39.612 26.4559 43.5571C24.8218 47.5021 23.9807 51.7304 23.9807 56.0005L56.4968 56.0005L56.4968 23.4843Z" fill="#002F86"/>
</g>
</svg>
